<?xml version="1.0" standalone="no"?>
<!DOCTYPE svg PUBLIC "-//W3C//DTD SVG 20010904//EN"
 "http://www.w3.org/TR/2001/REC-SVG-20010904/DTD/svg10.dtd">
<svg version="1.0" xmlns="http://www.w3.org/2000/svg"
 width="48px" height="48px" viewBox="0 0 512.000000 512.000000"
 preserveAspectRatio="xMidYMid meet">

<g transform="translate(0.000000,512.000000) scale(0.100000,-0.100000)"
fill="#007993" stroke="none">
<path d="M895 5105 c-195 -42 -370 -200 -436 -392 l-24 -68 0 -2085 0 -2085
24 -68 c50 -147 167 -278 308 -347 130 -63 30 -60 1954 -60 1930 0 1803 -4
1881 60 20 17 48 53 62 82 l26 52 0 1844 c0 1396 -3 1854 -12 1884 -16 54 -88
132 -140 153 -24 9 -75 19 -115 22 l-72 6 -3 421 c-3 380 -5 424 -21 453 -24
45 -77 96 -123 119 -38 19 -78 19 -1644 21 -1293 1 -1617 -1 -1665 -12z m3238
-167 c47 -24 46 -22 47 -440 l0 -398 -85 0 -85 0 0 270 c0 205 -3 279 -14 303
-20 49 -78 95 -128 102 -24 3 -689 5 -1478 3 l-1435 -3 -41 -22 c-53 -28 -96
-71 -120 -120 -16 -33 -19 -66 -22 -240 -2 -112 -7 -203 -12 -203 -18 0 -94
98 -123 160 -79 165 -28 382 116 501 44 36 123 76 173 88 62 14 3180 14 3207
-1z m-293 -583 l0 -255 -1450 0 -1450 0 0 226 0 226 29 29 29 29 1421 0 1421
0 0 -255z m-3062 -373 l72 -34 0 -1869 0 -1870 -23 12 c-98 51 -175 143 -208
248 -19 61 -19 107 -19 1847 l0 1784 53 -42 c28 -24 85 -58 125 -76z m3718
-85 l24 -28 0 -1819 c0 -1000 -3 -1826 -6 -1835 -18 -47 52 -45 -1779 -45
l-1715 0 0 1873 c0 1031 3 1877 7 1880 4 4 780 6 1726 5 l1719 -3 24 -28z"/>
<path d="M1238 4424 c-46 -24 -53 -90 -15 -131 l20 -23 933 0 932 0 27 32 c31
36 29 79 -6 113 -19 20 -34 20 -942 22 -802 2 -926 0 -949 -13z"/>
<path d="M3361 4414 c-40 -33 -43 -83 -6 -119 21 -22 33 -25 98 -25 60 0 79 4
101 21 26 21 35 65 20 104 -11 27 -60 45 -123 45 -49 0 -65 -4 -90 -26z"/>
<path d="M2480 3733 c-107 -18 -295 -80 -391 -128 -415 -209 -694 -578 -785
-1040 -26 -128 -26 -385 0 -520 85 -453 369 -830 782 -1039 351 -177 775 -200
1150 -61 462 171 812 578 914 1063 26 124 36 338 21 462 -79 646 -564 1155
-1205 1265 -113 19 -371 18 -486 -2z m397 -159 c21 -6 21 -7 -14 -87 -47 -109
-54 -184 -23 -255 46 -106 143 -162 280 -162 57 0 71 -4 94 -25 18 -17 26 -34
26 -57 -1 -71 -37 -88 -183 -88 -139 0 -216 -21 -309 -83 -72 -48 -129 -118
-160 -197 -29 -75 -31 -213 -4 -285 45 -119 136 -214 248 -257 36 -14 89 -23
166 -27 162 -10 156 0 162 -244 5 -175 7 -196 28 -235 26 -50 88 -98 146 -113
74 -20 172 8 223 63 35 38 55 94 163 455 114 381 115 390 56 449 -18 18 -46
36 -62 39 -85 18 -104 27 -119 55 -19 36 -12 70 20 100 19 18 41 23 113 29 70
6 100 14 135 34 25 15 49 32 52 37 12 20 22 9 38 -42 73 -233 73 -508 1 -748
-36 -120 -122 -290 -198 -391 -244 -324 -615 -511 -1016 -512 -178 0 -328 27
-477 88 l-43 17 0 85 c0 46 5 93 11 105 13 24 67 48 109 48 67 0 155 61 191
133 27 51 35 133 19 183 -26 82 -56 110 -273 256 -250 167 -290 188 -372 188
-124 0 -181 -34 -295 -173 l-79 -98 -25 80 c-32 102 -58 277 -54 371 l3 75
120 6 c139 6 180 22 239 91 34 39 66 117 66 159 0 37 18 52 170 144 207 124
250 174 250 286 0 71 -17 122 -57 168 -44 53 -108 82 -196 90 l-72 7 73 48
c133 87 297 152 457 180 80 14 331 21 372 10z m397 -113 c113 -51 261 -156
360 -255 86 -86 206 -246 206 -274 0 -22 -39 -91 -58 -100 -9 -5 -53 -12 -98
-15 -119 -7 -190 -48 -239 -138 -68 -126 -17 -288 110 -348 25 -12 54 -21 66
-21 13 0 19 -5 17 -12 -3 -7 -47 -155 -98 -327 -55 -186 -101 -322 -112 -333
-24 -24 -53 -23 -78 2 -18 18 -20 33 -20 183 0 205 -11 249 -80 317 -58 59
-120 80 -230 80 -96 0 -158 21 -208 69 -128 124 -99 319 60 406 50 27 62 30
203 36 83 3 161 11 175 16 197 83 217 352 34 459 -37 22 -63 28 -146 34 -94 6
-103 9 -125 34 -32 37 -29 60 18 169 l41 95 66 -23 c37 -12 98 -37 136 -54z
m-1163 -330 c24 -29 25 -83 2 -103 -10 -9 -83 -55 -163 -103 -80 -48 -155 -97
-168 -108 -40 -37 -63 -85 -72 -149 -13 -92 -35 -108 -146 -108 -71 0 -84 3
-84 16 0 30 68 221 106 295 43 87 108 187 160 247 l37 43 154 -3 c149 -3 156
-4 174 -27z m37 -1310 c115 -77 217 -150 226 -162 40 -58 2 -113 -86 -124
-139 -17 -238 -127 -238 -262 0 -24 -3 -43 -6 -43 -11 0 -105 69 -166 122 -68
59 -169 177 -226 267 l-41 63 47 61 c215 274 199 271 490 78z"/>
<path d="M2010 587 c-53 -27 -62 -96 -18 -137 21 -19 34 -20 440 -20 l419 0
24 25 c32 31 32 75 1 112 l-24 28 -409 3 c-316 1 -414 -1 -433 -11z"/>
<path d="M3120 587 c-53 -27 -62 -96 -18 -137 32 -29 164 -29 196 0 44 41 35
110 -18 137 -32 16 -128 16 -160 0z"/>
</g>
</svg>
